<!DOCTYPE svg PUBLIC "-//W3C//DTD SVG 1.1//EN" "http://www.w3.org/Graphics/SVG/1.1/DTD/svg11.dtd">
<!-- Uploaded to: SVG Repo, www.svgrepo.com, Transformed by: SVG Repo Mixer Tools -->
<svg height="180px" width="180px" version="1.1" id="Layer_1" xmlns="http://www.w3.org/2000/svg" xmlns:xlink="http://www.w3.org/1999/xlink" viewBox="0 0 495 495" xml:space="preserve" fill="#000000">
<g id="SVGRepo_bgCarrier" stroke-width="0"/>
<g id="SVGRepo_tracerCarrier" stroke-linecap="round" stroke-linejoin="round" stroke="#CCCCCC" stroke-width="0.99"/>
<g id="SVGRepo_iconCarrier"> <g> <path style="fill:#4a4a4a;" d="M247.5,495H495v-40H382.432C343.619,480.291,297.28,495,247.5,495z"/> <path style="fill:#9e9e9e;" d="M247.5,405c-27.57,0-50-22.43-50-50c0-27.57,22.43-50,50-50V190c-27.57,0-50-22.43-50-50 c0-27.57,22.43-50,50-50V0C110.81,0,0,110.81,0,247.5S110.81,495,247.5,495V405z M140,297.5c-27.57,0-50-22.43-50-50 c0-27.57,22.43-50,50-50s50,22.43,50,50C190,275.07,167.57,297.5,140,297.5z"/> <path style="fill:#9e9e9e;" d="M495,247.5C495,110.81,384.19,0,247.5,0v90c27.57,0,50,22.43,50,50c0,27.57-22.43,50-50,50v115 c27.57,0,50,22.43,50,50c0,27.57-22.43,50-50,50v90c49.78,0,96.119-14.709,134.932-40C450.195,410.845,495,334.41,495,247.5z M355,197.5c27.57,0,50,22.43,50,50c0,27.57-22.43,50-50,50s-50-22.43-50-50C305,219.93,327.43,197.5,355,197.5z"/> <path style="fill:#4a4a4a;" d="M197.5,140c0,27.57,22.43,50,50,50s50-22.43,50-50c0-27.57-22.43-50-50-50S197.5,112.43,197.5,140z"/> <path style="fill:#4a4a4a;" d="M140,197.5c-27.57,0-50,22.43-50,50c0,27.57,22.43,50,50,50s50-22.43,50-50 C190,219.93,167.57,197.5,140,197.5z"/> <path style="fill:#4a4a4a;" d="M197.5,355c0,27.57,22.43,50,50,50s50-22.43,50-50c0-27.57-22.43-50-50-50S197.5,327.43,197.5,355z"/> <path style="fill:#4a4a4a;" d="M355,297.5c27.57,0,50-22.43,50-50c0-27.57-22.43-50-50-50s-50,22.43-50,50 C305,275.07,327.43,297.5,355,297.5z"/> </g> </g>
</svg>