<!-- Generated by IcoMoon.io -->
<svg version="1.1" xmlns="http://www.w3.org/2000/svg" width="32" height="32" viewBox="0 0 32 32">
<title></title>
<g id="icomoon-ignore">
</g>
<path d="M29.313 16q0-2.75-1.031-5.156t-2.875-4.25-4.25-2.875-5.156-1.031-5.156 1.031-4.25 2.875-2.875 4.25-1.031 5.156q0 2.438 0.781 4.594t2.25 3.906 3.406 2.938 4.188 1.625v-9.063h-2.625v-4h2.625v-3.313q0-1.313 0.656-2.375t1.688-1.688 2.344-0.625h3.313v4h-2.625q-0.563 0-0.969 0.406t-0.406 0.906v2.688h4v4h-4v9.25q2.563-0.25 4.75-1.375t3.813-2.906 2.531-4.063 0.906-4.906z"></path>
</svg>
